# xmcd
#
# Track frame offsets:
# 150
# 19788
# 37730
# 53670
# 75103
# 92102
# 111766
# 125286
# 140889
# 159218
#
# Disc length: 2276 seconds
#
#
# Revision: 0
# Processed by: cddbd v1.5.2PL0 Copyright (c) Steve Scherf et al.
# Submitted via: FreeRIP 2.951 
#
DISCID=6c08e20a
DTITLE=Toby Keith - Dream Walkin'
DYEAR=1900
DGENRE=Country
TTITLE0=We Were In Love
TTITLE1=Dream Walkin'
TTITLE2=You Don't Anymore
TTITLE3=Tired
TTITLE4=Doublewide Paradise
TTITLE5=Yet
TTITLE6=She Ran Around With A Rodeo Clown
TTITLE7=Strangers Again
TTITLE8=I'm So HAppy
TTITLE9=I Don't Understand My Girlfriend
EXTD=
EXTT0=
EXTT1=
EXTT2=
EXTT3=
EXTT4=
EXTT5=
EXTT6=
EXTT7=
EXTT8=
EXTT9=
PLAYORDER=
